<?xml version="1.0" encoding="utf-8"?>
<!-- Generator: Adobe Illustrator 19.2.1, SVG Export Plug-In . SVG Version: 6.00 Build 0)  -->
<svg version="1.1" id="Layer_1" xmlns="http://www.w3.org/2000/svg" xmlns:xlink="http://www.w3.org/1999/xlink" x="0px" y="0px"
	 viewBox="0 0 249.4 30" style="enable-background:new 0 0 249.4 30;" xml:space="preserve">
<style type="text/css">
	.st0{fill:#F16722;}
	.st1{fill:#003399;}
	.st2{fill:#F06824;}
	.st3{fill:#00508F;}
	.st4{fill:#7391CA;}
</style>
<g>
	<path class="st0" d="M48.4,18.2h-6.6l-1.7,4.5h2.3v1.8h-6.4v-1.8h2l6.3-16.4h2.8l5.9,16.4h2.5v1.8h-8.5v-1.8H50L48.4,18.2z
		 M42.4,16.6h5.4l-2.6-7.4h-0.1L42.4,16.6z"/>
	<path class="st0" d="M56.6,22.7h3.1V8.3h-3.1V6.4h7.9c5.6,0,7.6,2.5,7.6,5.2c0,2.5-1.6,5.5-7.4,5.5h-2.3v5.6h3.4v1.8h-9.3V22.7z
		 M64.6,15.5c3.6,0,4.3-1.6,4.3-3.8c0-1.8-0.9-3.4-4.4-3.4h-2.1v7.2H64.6z"/>
	<path class="st0" d="M73.7,15.5c0-5.1,3.9-9.4,8.6-9.4c2.2,0,3.9,0.9,5,2.1l0.5-2h1.8v7.1h-1.7c-1.2-3.3-3.1-5.4-5.5-5.4
		c-3.1,0-5.4,2.1-5.4,7.5c0,4.9,2.1,7.8,5.8,7.8c3.3,0,5.2-2.6,5.6-5.8h2c-0.5,4.9-3.7,7.7-8,7.7C77.1,25,73.7,20.8,73.7,15.5z"/>
	<path class="st0" d="M102.7,18.2h-6.6l-1.7,4.5h2.3v1.8h-6.4v-1.8h2l6.3-16.4h2.8l5.9,16.4h2.5v1.8h-8.5v-1.8h2.9L102.7,18.2z
		 M96.8,16.6h5.4l-2.6-7.4h-0.1L96.8,16.6z"/>
</g>
<g>
	<path class="st0" d="M108,7.7h0.3V6.5h-0.1c-0.2,0-0.2,0.1-0.4,0.4h-0.1V6.4h1.4v0.6H109c-0.1-0.3-0.2-0.4-0.4-0.4h-0.1v1.2h0.3
		v0.2H108V7.7z M109.4,7.7h0.2V6.5h-0.2V6.4h0.7l0.3,1.1h0l0.3-1.1h0.7v0.2h-0.2v1.1h0.2v0.2h-0.7V7.7h0.2V6.6h-0.1l-0.4,1.2h-0.2
		l-0.4-1.2h-0.1v1.1h0.2v0.2h-0.6V7.7z"/>
</g>
<path class="st1" d="M131.9,10.9h-2.3l-0.6,1.6h0.8v0.6h-2.2v-0.6h0.7l2.2-5.7h1l2,5.7h0.9v0.6h-2.9v-0.6h1L131.9,10.9z M129.8,10.4
	h1.9l-0.9-2.6h0L129.8,10.4z"/>
<path class="st1" d="M134.4,12.5h0.8V7.3h-0.8V6.6h1.7v5.9h0.8v0.6h-2.5V12.5z"/>
<path class="st1" d="M137.3,12.5h0.8V7.3h-0.8V6.6h1.7v5.9h0.8v0.6h-2.5V12.5z"/>
<path class="st1" d="M140.4,12.5h0.8V9.4h-0.8V8.8h1.7v3.7h0.8v0.6h-2.5V12.5z M140.9,7.2c0-0.4,0.2-0.6,0.6-0.6
	c0.4,0,0.6,0.2,0.6,0.6c0,0.4-0.2,0.6-0.6,0.6C141.2,7.9,140.9,7.6,140.9,7.2z"/>
<path class="st1" d="M143.4,12.1c0-0.3,0.1-0.6,0.3-0.8c0.4-0.4,0.8-0.5,1.6-0.6c0.6-0.1,0.7-0.1,0.7-0.3V10c0-0.6-0.3-0.8-0.9-0.8
	c-0.3,0-0.5,0.1-0.7,0.2c0.2,0.1,0.3,0.3,0.3,0.5c0,0.3-0.2,0.5-0.6,0.5c-0.4,0-0.6-0.3-0.6-0.6c0-0.7,0.8-1.1,1.8-1.1
	c1,0,1.6,0.4,1.6,1.3v2.2c0,0.2,0.1,0.3,0.3,0.3c0.1,0,0.2-0.1,0.3-0.3l0.3,0.2c-0.2,0.5-0.6,0.8-1,0.8c-0.4,0-0.8-0.2-0.8-0.8h0
	c-0.2,0.5-0.8,0.8-1.4,0.8C143.9,13.2,143.4,12.7,143.4,12.1z M146.1,11.7v-0.8c-0.1,0-0.2,0.1-0.4,0.1c-0.9,0.1-1.2,0.3-1.2,0.8
	c0,0.4,0.2,0.7,0.7,0.7C145.5,12.6,146.1,12.2,146.1,11.7z"/>
<path class="st1" d="M148.1,12.5h0.7V9.4h-0.7V8.8h1.6v1.1c0.5-0.8,1-1.2,1.6-1.2c0.7,0,1.2,0.5,1.2,1.4v2.4h0.7v0.6h-2.2v-0.6h0.6
	v-2.1c0-0.3-0.1-0.6-0.2-0.8c-0.1-0.1-0.3-0.2-0.5-0.2c-0.5,0-1.1,0.5-1.1,1.4v1.7h0.6v0.6h-2.2V12.5z"/>
<path class="st1" d="M153.7,11c0-1.4,1-2.3,2.3-2.3c1,0,1.7,0.7,1.7,1.2c0,0.4-0.2,0.8-0.6,0.8c-0.4,0-0.6-0.3-0.6-0.6
	c0-0.3,0.2-0.5,0.4-0.6c-0.1-0.2-0.4-0.4-0.9-0.4c-0.7,0-1.2,0.6-1.2,1.7c0,1.1,0.5,1.7,1.4,1.7c0.5,0,1-0.3,1.2-0.9h0.5
	c-0.2,1-0.9,1.5-1.9,1.5C154.4,13.2,153.7,12.3,153.7,11z"/>
<path class="st1" d="M159.3,11c0,1.1,0.5,1.6,1.3,1.6c0.5,0,0.9-0.2,1.2-0.8h0.5c-0.2,0.9-0.9,1.4-1.9,1.4c-1.3,0-2.1-1-2.1-2.2
	c0-1.3,0.9-2.3,2.1-2.3c1.3,0,1.9,1.2,1.9,2.3H159.3z M159.3,10.6h2.1c-0.1-0.8-0.3-1.4-1-1.4C159.8,9.2,159.4,9.6,159.3,10.6z"/>
<path class="st1" d="M164.8,12.5h0.7V9.4h-0.9V8.8h0.9V8.6c0-1.5,1-2.1,1.8-2.1c0.8,0,1.2,0.4,1.2,0.9c0,0.3-0.2,0.6-0.5,0.6
	c-0.3,0-0.6-0.2-0.6-0.6c0-0.1,0-0.2,0.1-0.3c-0.1,0-0.2-0.1-0.3-0.1c-0.5,0-0.8,0.3-0.8,1.6v0.2h1.3v0.6h-1.3v3.1h1v0.6h-2.6V12.5z
	"/>
<path class="st1" d="M168.1,11c0-1.3,0.9-2.3,2.2-2.3c1.3,0,2.2,0.9,2.2,2.2c0,1.3-0.9,2.3-2.2,2.3C168.9,13.2,168.1,12.3,168.1,11z
	 M171.4,11c0-1.2-0.5-1.7-1.2-1.7c-0.8,0-1.1,0.5-1.1,1.7s0.5,1.7,1.2,1.7C171,12.7,171.4,12.2,171.4,11z"/>
<path class="st1" d="M173.1,12.5h0.7V9.4h-0.7V8.8h1.6v1c0.2-0.7,0.8-1.1,1.3-1.1c0.5,0,0.8,0.3,0.8,0.7c0,0.3-0.2,0.6-0.6,0.6
	c-0.3,0-0.6-0.2-0.6-0.6c0,0,0-0.1,0-0.2c-0.4,0-0.7,0.5-0.9,1v2.1h0.8v0.6h-2.4V12.5z"/>
<path class="st1" d="M178.9,12.5h1.1v-5h-1.1V6.9h2.7c1.9,0,2.6,0.9,2.6,1.8c0,0.9-0.6,1.9-2.5,1.9H181v1.9h1.2v0.6h-3.2V12.5z
	 M181.7,10c1.2,0,1.5-0.6,1.5-1.3c0-0.6-0.3-1.2-1.5-1.2H181V10H181.7z"/>
<path class="st1" d="M184.8,12.5h0.7V7.3h-0.7V6.6h1.6v3.3c0.5-0.8,1-1.1,1.6-1.1c0.7,0,1.2,0.5,1.2,1.4v2.4h0.7v0.6h-2.2v-0.6h0.6
	v-2.1c0-0.3-0.1-0.6-0.2-0.8c-0.1-0.1-0.3-0.2-0.5-0.2c-0.5,0-1.1,0.5-1.1,1.4v1.7h0.6v0.6h-2.2V12.5z"/>
<path class="st1" d="M191.3,13.9c0,0.1,0,0.2-0.1,0.3c0.4-0.1,0.6-0.3,0.9-1.1l-1.5-3.7h-0.6V8.8h2.3v0.6h-0.7l1,2.7l1.1-2.7h-0.6
	V8.8h1.8v0.6h-0.6l-1.5,3.6c-0.6,1.4-1.1,1.7-1.8,1.7c-0.6,0-0.9-0.3-0.9-0.8c0-0.3,0.3-0.6,0.6-0.6
	C191.1,13.4,191.3,13.6,191.3,13.9z"/>
<path class="st1" d="M195.4,11.6h0.6c0.2,0.7,0.8,1.2,1.4,1.2c0.5,0,0.7-0.3,0.7-0.6c0-0.4-0.3-0.6-1.2-0.8c-1-0.3-1.5-0.7-1.5-1.4
	c0-0.7,0.6-1.3,1.5-1.3c0.4,0,0.8,0.2,1.1,0.5l0.1-0.5h0.6v1.5h-0.6c-0.3-0.6-0.6-1-1.2-1c-0.3,0-0.7,0.2-0.7,0.6
	c0,0.4,0.3,0.6,1.1,0.8c1,0.3,1.5,0.6,1.5,1.3c0,0.7-0.6,1.4-1.6,1.4c-0.5,0-1-0.2-1.3-0.6l-0.1,0.6h-0.6V11.6z"/>
<path class="st1" d="M199.6,12.5h0.8V9.4h-0.8V8.8h1.7v3.7h0.8v0.6h-2.5V12.5z M200.1,7.2c0-0.4,0.2-0.6,0.6-0.6
	c0.4,0,0.6,0.2,0.6,0.6c0,0.4-0.2,0.6-0.6,0.6C200.4,7.9,200.1,7.6,200.1,7.2z"/>
<path class="st1" d="M202.6,11c0-1.4,1-2.3,2.3-2.3c1,0,1.7,0.7,1.7,1.2c0,0.4-0.2,0.8-0.6,0.8c-0.4,0-0.6-0.3-0.6-0.6
	c0-0.3,0.2-0.5,0.4-0.6c-0.1-0.2-0.4-0.4-0.9-0.4c-0.7,0-1.2,0.6-1.2,1.7c0,1.1,0.5,1.7,1.4,1.7c0.5,0,1-0.3,1.2-0.9h0.5
	c-0.2,1-0.9,1.5-1.9,1.5C203.3,13.2,202.6,12.3,202.6,11z"/>
<path class="st1" d="M207.2,12.5h0.8V9.4h-0.8V8.8h1.7v3.7h0.8v0.6h-2.5V12.5z M207.8,7.2c0-0.4,0.2-0.6,0.6-0.6
	c0.4,0,0.6,0.2,0.6,0.6c0,0.4-0.2,0.6-0.6,0.6C208,7.9,207.8,7.6,207.8,7.2z"/>
<path class="st1" d="M210.3,12.1c0-0.3,0.1-0.6,0.3-0.8c0.4-0.4,0.8-0.5,1.6-0.6c0.6-0.1,0.7-0.1,0.7-0.3V10c0-0.6-0.3-0.8-0.9-0.8
	c-0.3,0-0.5,0.1-0.7,0.2c0.2,0.1,0.3,0.3,0.3,0.5c0,0.3-0.2,0.5-0.6,0.5c-0.4,0-0.6-0.3-0.6-0.6c0-0.7,0.8-1.1,1.8-1.1
	c1,0,1.6,0.4,1.6,1.3v2.2c0,0.2,0.1,0.3,0.3,0.3c0.1,0,0.2-0.1,0.3-0.3l0.3,0.2c-0.2,0.5-0.6,0.8-1,0.8c-0.4,0-0.8-0.2-0.8-0.8h0
	c-0.2,0.5-0.8,0.8-1.4,0.8C210.8,13.2,210.3,12.7,210.3,12.1z M212.9,11.7v-0.8c-0.1,0-0.2,0.1-0.4,0.1c-0.9,0.1-1.2,0.3-1.2,0.8
	c0,0.4,0.2,0.7,0.7,0.7C212.4,12.6,212.9,12.2,212.9,11.7z"/>
<path class="st1" d="M215,12.5h0.7V9.4H215V8.8h1.6v1.1c0.5-0.8,1-1.2,1.6-1.2c0.7,0,1.2,0.5,1.2,1.4v2.4h0.7v0.6h-2.2v-0.6h0.6
	v-2.1c0-0.3-0.1-0.6-0.2-0.8c-0.1-0.1-0.3-0.2-0.5-0.2c-0.5,0-1.1,0.5-1.1,1.4v1.7h0.6v0.6H215V12.5z"/>
<path class="st1" d="M127.1,20.8c0-1.8,1.4-3.3,3-3.3c0.8,0,1.4,0.3,1.7,0.7l0.2-0.7h0.6V20h-0.6c-0.4-1.1-1.1-1.9-1.9-1.9
	c-1.1,0-1.9,0.7-1.9,2.6c0,1.7,0.7,2.7,2,2.7c1.1,0,1.8-0.9,1.9-2h0.7c-0.2,1.7-1.3,2.7-2.8,2.7C128.3,24.1,127.1,22.6,127.1,20.8z"
	/>
<path class="st1" d="M134.6,21.8c0,1.1,0.5,1.6,1.3,1.6c0.5,0,0.9-0.2,1.2-0.8h0.5c-0.2,0.9-0.9,1.4-1.9,1.4c-1.3,0-2.1-1-2.1-2.2
	c0-1.3,0.9-2.3,2.1-2.3c1.3,0,1.9,1.2,1.9,2.3H134.6z M134.6,21.4h2.1c-0.1-0.8-0.3-1.4-1-1.4C135.1,20,134.7,20.4,134.6,21.4z"/>
<path class="st1" d="M138.3,23.3h0.7v-3.1h-0.7v-0.6h1.6v1c0.2-0.7,0.8-1.1,1.3-1.1c0.5,0,0.8,0.3,0.8,0.7c0,0.3-0.2,0.6-0.6,0.6
	c-0.3,0-0.6-0.2-0.6-0.6c0,0,0-0.1,0-0.2c-0.4,0-0.7,0.5-0.9,1v2.1h0.8v0.6h-2.4V23.3z"/>
<path class="st1" d="M143.8,18.4v1.2h1.4v0.6h-1.4v2.6c0,0.4,0.1,0.6,0.5,0.6c0.3,0,0.5-0.2,0.7-0.8l0.4,0.2
	c-0.2,0.8-0.8,1.2-1.4,1.2c-0.8,0-1.2-0.4-1.2-1.2v-2.7h-0.9v-0.6h0.9v-1.1L143.8,18.4z"/>
<path class="st1" d="M145.9,23.3h0.8v-3.1h-0.8v-0.6h1.7v3.7h0.8v0.6h-2.5V23.3z M146.4,18c0-0.4,0.2-0.6,0.6-0.6
	c0.4,0,0.6,0.2,0.6,0.6c0,0.4-0.2,0.6-0.6,0.6C146.7,18.7,146.4,18.4,146.4,18z"/>
<path class="st1" d="M150.5,20.2v3.1h0.6v0.6h-2.2v-0.6h0.7v-3.1h-0.9v-0.6h0.9v-0.1c0-1.6,1.1-2.1,2-2.1c0.8,0,1.5,0.5,1.5,1
	c0,0.4-0.2,0.6-0.5,0.6c-0.3,0-0.6-0.2-0.6-0.6c0-0.2,0.1-0.3,0.1-0.4c-0.1-0.1-0.4-0.2-0.7-0.2c-0.6,0-1,0.4-1,1.4v0.4h2.7v3.7h0.8
	v0.6h-2.3v-0.6h0.6v-3.1H150.5z"/>
<path class="st1" d="M154.5,21.8c0-1.4,1-2.3,2.3-2.3c1,0,1.7,0.7,1.7,1.2c0,0.4-0.2,0.8-0.6,0.8c-0.4,0-0.6-0.3-0.6-0.6
	c0-0.3,0.2-0.5,0.4-0.6c-0.1-0.2-0.4-0.4-0.9-0.4c-0.7,0-1.2,0.6-1.2,1.7c0,1.1,0.5,1.7,1.4,1.7c0.5,0,1-0.3,1.2-0.9h0.5
	c-0.2,1-0.9,1.5-1.9,1.5C155.3,24,154.5,23.1,154.5,21.8z"/>
<path class="st1" d="M159.2,22.8c0-0.3,0.1-0.6,0.3-0.8c0.4-0.4,0.8-0.5,1.6-0.6c0.6-0.1,0.7-0.1,0.7-0.3v-0.4
	c0-0.6-0.3-0.8-0.9-0.8c-0.3,0-0.5,0.1-0.7,0.2c0.2,0.1,0.3,0.3,0.3,0.5c0,0.3-0.2,0.5-0.6,0.5c-0.4,0-0.6-0.3-0.6-0.6
	c0-0.7,0.8-1.1,1.8-1.1c1,0,1.6,0.4,1.6,1.3V23c0,0.2,0.1,0.3,0.3,0.3c0.1,0,0.2-0.1,0.3-0.3l0.3,0.2c-0.2,0.5-0.6,0.8-1,0.8
	c-0.4,0-0.8-0.2-0.8-0.8h0c-0.2,0.5-0.8,0.8-1.4,0.8C159.7,24,159.2,23.5,159.2,22.8z M161.8,22.5v-0.8c-0.1,0-0.2,0.1-0.4,0.1
	c-0.9,0.1-1.2,0.3-1.2,0.8c0,0.4,0.2,0.7,0.7,0.7C161.3,23.4,161.8,23,161.8,22.5z"/>
<path class="st1" d="M165.3,18.4v1.2h1.4v0.6h-1.4v2.6c0,0.4,0.1,0.6,0.5,0.6c0.3,0,0.5-0.2,0.7-0.8l0.4,0.2
	c-0.2,0.8-0.8,1.2-1.4,1.2c-0.8,0-1.2-0.4-1.2-1.2v-2.7h-0.9v-0.6h0.9v-1.1L165.3,18.4z"/>
<path class="st1" d="M167.4,23.3h0.8v-3.1h-0.8v-0.6h1.7v3.7h0.8v0.6h-2.5V23.3z M167.9,18c0-0.4,0.2-0.6,0.6-0.6
	c0.4,0,0.6,0.2,0.6,0.6c0,0.4-0.2,0.6-0.6,0.6C168.2,18.7,167.9,18.4,167.9,18z"/>
<path class="st1" d="M170.4,21.8c0-1.3,0.9-2.3,2.2-2.3c1.3,0,2.2,0.9,2.2,2.2c0,1.3-0.9,2.3-2.2,2.3
	C171.2,24,170.4,23.1,170.4,21.8z M173.7,21.7c0-1.2-0.5-1.7-1.2-1.7c-0.8,0-1.1,0.5-1.1,1.7c0,1.2,0.5,1.7,1.2,1.7
	C173.4,23.5,173.7,22.9,173.7,21.7z"/>
<path class="st1" d="M175.5,23.3h0.7v-3.1h-0.7v-0.6h1.6v1.1c0.5-0.8,1-1.2,1.6-1.2c0.7,0,1.2,0.5,1.2,1.4v2.4h0.7v0.6h-2.2v-0.6
	h0.6v-2.1c0-0.3-0.1-0.6-0.2-0.8c-0.1-0.1-0.3-0.2-0.5-0.2c-0.5,0-1.1,0.5-1.1,1.4v1.7h0.6v0.6h-2.2V23.3z"/>
<path class="st1" d="M189.2,20.3v0.6h-0.7c-0.3,0.6-0.7,1.2-1.2,1.8c0.4,0.6,0.5,0.7,0.8,0.7c0.2,0,0.4-0.1,0.6-0.5l0.4,0.2
	c-0.2,0.6-0.6,1-1.3,1c-0.5,0-0.8-0.2-1.2-0.8c-0.5,0.5-1.1,0.8-1.8,0.8c-1.3,0-1.9-0.8-1.9-1.5c0-0.8,0.5-1.4,1.6-1.9
	c-0.4-0.4-0.6-0.8-0.6-1.2c0-0.9,0.7-1.5,1.6-1.5c0.9,0,1.4,0.5,1.4,1.2c0,0.7-0.5,1.1-1.3,1.5c0.6,0.6,1,1,1.3,1.6
	c0.3-0.4,0.6-0.9,0.8-1.3h-0.7v-0.6H189.2z M186.3,22.8c-0.4-0.6-0.8-1.1-1.5-1.8c-0.6,0.3-0.9,0.7-0.9,1.3c0,0.6,0.4,1.1,1.1,1.1
	C185.6,23.4,186,23.2,186.3,22.8z M185.4,20.3c0.5-0.3,0.8-0.7,0.8-1.1c0-0.4-0.2-0.8-0.7-0.8c-0.4,0-0.7,0.3-0.7,0.7
	C184.8,19.5,184.9,19.8,185.4,20.3z"/>
<path class="st1" d="M195.4,21.7h-2.3l-0.6,1.6h0.8v0.6h-2.2v-0.6h0.7l2.2-5.7h1l2,5.7h0.9v0.6H195v-0.6h1L195.4,21.7z M193.3,21.2
	h1.9l-0.9-2.6h0L193.3,21.2z"/>
<path class="st1" d="M198.7,23.5c-0.4-0.4-0.6-1.1-0.6-1.7c0-0.7,0.2-1.4,0.7-1.8c0.3-0.3,0.7-0.5,1.2-0.5c0.6,0,1.1,0.3,1.3,0.8
	v-2.2h-0.7v-0.7h1.6v5.9h0.6v0.6h-1.5V23c-0.3,0.7-0.8,1-1.4,1C199.4,24,199,23.8,198.7,23.5z M201.3,21.7c0-0.9-0.3-1.6-1.1-1.6
	c-0.7,0-1.1,0.6-1.1,1.6c0,1.1,0.5,1.7,1.1,1.7C200.8,23.4,201.3,22.8,201.3,21.7z"/>
<path class="st1" d="M203.6,20.2H203v-0.6h2.3v0.6h-0.7l1,2.9h0l1-2.9H206v-0.6h1.8v0.6h-0.6l-1.5,3.8H205L203.6,20.2z"/>
<path class="st1" d="M208.3,22.8c0-0.3,0.1-0.6,0.3-0.8c0.4-0.4,0.8-0.5,1.6-0.6c0.6-0.1,0.7-0.1,0.7-0.3v-0.4
	c0-0.6-0.3-0.8-0.9-0.8c-0.3,0-0.5,0.1-0.7,0.2c0.2,0.1,0.3,0.3,0.3,0.5c0,0.3-0.2,0.5-0.6,0.5c-0.4,0-0.6-0.3-0.6-0.6
	c0-0.7,0.8-1.1,1.8-1.1c1,0,1.6,0.4,1.6,1.3V23c0,0.2,0.1,0.3,0.3,0.3c0.1,0,0.2-0.1,0.3-0.3l0.3,0.2c-0.2,0.5-0.6,0.8-1,0.8
	c-0.4,0-0.8-0.2-0.8-0.8h0c-0.2,0.5-0.8,0.8-1.4,0.8C208.8,24,208.3,23.5,208.3,22.8z M211,22.5v-0.8c-0.1,0-0.2,0.1-0.4,0.1
	c-0.9,0.1-1.2,0.3-1.2,0.8c0,0.4,0.2,0.7,0.7,0.7C210.4,23.4,211,23,211,22.5z"/>
<path class="st1" d="M213,23.3h0.7v-3.1H213v-0.6h1.6v1.1c0.5-0.8,1-1.2,1.6-1.2c0.7,0,1.2,0.5,1.2,1.4v2.4h0.7v0.6h-2.2v-0.6h0.6
	v-2.1c0-0.3-0.1-0.6-0.2-0.8c-0.1-0.1-0.3-0.2-0.5-0.2c-0.5,0-1.1,0.5-1.1,1.4v1.7h0.6v0.6H213V23.3z"/>
<path class="st1" d="M218.6,21.8c0-1.4,1-2.3,2.3-2.3c1,0,1.7,0.7,1.7,1.2c0,0.4-0.2,0.8-0.6,0.8c-0.4,0-0.6-0.3-0.6-0.6
	c0-0.3,0.2-0.5,0.4-0.6c-0.1-0.2-0.4-0.4-0.9-0.4c-0.7,0-1.2,0.6-1.2,1.7c0,1.1,0.5,1.7,1.4,1.7c0.5,0,1-0.3,1.2-0.9h0.5
	c-0.2,1-0.9,1.5-1.9,1.5C219.3,24,218.6,23.1,218.6,21.8z"/>
<path class="st1" d="M224.2,21.8c0,1.1,0.5,1.6,1.3,1.6c0.5,0,0.9-0.2,1.2-0.8h0.5c-0.2,0.9-0.9,1.4-1.9,1.4c-1.3,0-2.1-1-2.1-2.2
	c0-1.3,0.9-2.3,2.1-2.3c1.3,0,1.9,1.2,1.9,2.3H224.2z M224.2,21.4h2.1c-0.1-0.8-0.3-1.4-1-1.4C224.7,20,224.3,20.4,224.2,21.4z"/>
<path class="st1" d="M233.7,19.5c0.7,0,1.1,0.5,1.1,1.4v2.4h0.7v0.6h-2.2v-0.6h0.6v-2.1c0-0.3-0.1-0.6-0.2-0.8
	c-0.1-0.1-0.3-0.2-0.5-0.2c-0.5,0-1.1,0.5-1.1,1.4v1.7h0.6v0.6h-2.1v-0.6h0.6v-2.1c0-0.3-0.1-0.6-0.2-0.8c-0.1-0.1-0.3-0.2-0.5-0.2
	c-0.5,0-1.1,0.5-1.1,1.4v1.7h0.6v0.6h-2.2v-0.6h0.7v-3.1h-0.7v-0.6h1.6v1.1c0.5-0.8,1-1.2,1.6-1.2c0.6,0,1,0.3,1.1,1.1
	C232.7,19.8,233.2,19.5,233.7,19.5z"/>
<path class="st1" d="M237.1,21.8c0,1.1,0.5,1.6,1.3,1.6c0.5,0,0.9-0.2,1.2-0.8h0.5c-0.2,0.9-0.9,1.4-1.9,1.4c-1.3,0-2.1-1-2.1-2.2
	c0-1.3,0.9-2.3,2.1-2.3c1.3,0,1.9,1.2,1.9,2.3H237.1z M237.1,21.4h2.1c-0.1-0.8-0.3-1.4-1-1.4C237.5,20,237.1,20.4,237.1,21.4z"/>
<path class="st1" d="M240.8,23.3h0.7v-3.1h-0.7v-0.6h1.6v1.1c0.5-0.8,1-1.2,1.6-1.2c0.7,0,1.2,0.5,1.2,1.4v2.4h0.7v0.6h-2.2v-0.6
	h0.6v-2.1c0-0.3-0.1-0.6-0.2-0.8c-0.1-0.1-0.3-0.2-0.5-0.2c-0.5,0-1.1,0.5-1.1,1.4v1.7h0.6v0.6h-2.2V23.3z"/>
<path class="st1" d="M247.8,18.4v1.2h1.4v0.6h-1.4v2.6c0,0.4,0.1,0.6,0.5,0.6c0.3,0,0.5-0.2,0.7-0.8l0.4,0.2
	c-0.2,0.8-0.8,1.2-1.4,1.2c-0.8,0-1.2-0.4-1.2-1.2v-2.7h-0.9v-0.6h0.9v-1.1L247.8,18.4z"/>
<g>
	<path class="st2" d="M15.1,13C14,13,13,13.9,13,15c0,1.1,0.9,2.1,2.1,2.1c1.1,0,2.1-0.9,2.1-2.1C17.2,13.9,16.2,13,15.1,13"/>
	<path class="st3" d="M3.1,9.4c-0.1,0-0.2,0-0.3-0.1c-0.2-0.2-0.2-0.4,0-0.6l2-2L2.8,4.8c-0.2-0.2-0.2-0.4,0-0.6C3,4,3.2,4,3.4,4.2
		l2.2,2.2c0.2,0.2,0.2,0.4,0,0.6L3.4,9.3C3.3,9.4,3.2,9.4,3.1,9.4"/>
	<path class="st4" d="M9,10.8c-0.1,0-0.2,0-0.3-0.1l-2-2l-1.9,1.9c-0.2,0.2-0.4,0.2-0.6,0C4,10.5,4,10.2,4.2,10l2.2-2.2
		c0.2-0.2,0.4-0.2,0.6,0l2.3,2.3c0.2,0.2,0.2,0.4,0,0.6C9.2,10.7,9.1,10.8,9,10.8"/>
	<path class="st4" d="M6.7,5.8c-0.1,0-0.2,0-0.3-0.1L4.2,3.4C4,3.3,4,3,4.2,2.8c0.2-0.2,0.4-0.2,0.6,0l1.9,1.9l2-2
		c0.2-0.2,0.4-0.2,0.6,0c0.2,0.2,0.2,0.4,0,0.6L7,5.7C6.9,5.7,6.8,5.8,6.7,5.8"/>
	<path class="st3" d="M10.3,9.4c-0.1,0-0.2,0-0.3-0.1L7.8,7C7.7,6.9,7.7,6.8,7.7,6.7c0-0.1,0-0.2,0.1-0.3L10,4.2
		c0.2-0.2,0.4-0.2,0.6,0c0.2,0.2,0.2,0.4,0,0.6L8.7,6.7l2,2c0.2,0.2,0.2,0.4,0,0.6C10.6,9.4,10.5,9.4,10.3,9.4"/>
	<path class="st3" d="M0.4,17.6c-0.1,0-0.2,0-0.3-0.1c-0.2-0.2-0.2-0.4,0-0.6l2-2L0.2,13c-0.2-0.2-0.2-0.4,0-0.6
		c0.2-0.2,0.4-0.2,0.6,0L3,14.6c0.2,0.2,0.2,0.4,0,0.6l-2.3,2.3C0.6,17.6,0.5,17.6,0.4,17.6"/>
	<path class="st4" d="M6.3,19c-0.1,0-0.2,0-0.3-0.1l-2-2l-1.9,1.9c-0.2,0.2-0.4,0.2-0.6,0c-0.2-0.2-0.2-0.4,0-0.6L3.7,16
		c0.2-0.2,0.4-0.2,0.6,0l2.3,2.3c0.2,0.2,0.2,0.4,0,0.6C6.5,18.9,6.4,19,6.3,19"/>
	<path class="st4" d="M4,14c-0.1,0-0.2,0-0.3-0.1l-2.2-2.2c-0.2-0.2-0.2-0.4,0-0.6c0.2-0.2,0.4-0.2,0.6,0L4,13l2-2
		c0.2-0.2,0.4-0.2,0.6,0c0.2,0.2,0.2,0.4,0,0.6l-2.3,2.3C4.3,13.9,4.1,14,4,14"/>
	<path class="st3" d="M7.7,17.6c-0.1,0-0.2,0-0.3-0.1l-2.3-2.3C5,15.1,5,15,5,14.9c0-0.1,0-0.2,0.1-0.3l2.2-2.2
		c0.2-0.2,0.4-0.2,0.6,0c0.2,0.2,0.2,0.4,0,0.6L6,14.9l2,2c0.2,0.2,0.2,0.4,0,0.6C7.9,17.6,7.8,17.6,7.7,17.6"/>
	<path class="st3" d="M11.3,6.7c-0.1,0-0.2,0-0.3-0.1c-0.2-0.2-0.2-0.4,0-0.6l2-2L11,2.1c-0.2-0.2-0.2-0.4,0-0.6
		c0.2-0.2,0.4-0.2,0.6,0l2.2,2.2c0.2,0.2,0.2,0.4,0,0.6l-2.3,2.3C11.5,6.7,11.4,6.7,11.3,6.7"/>
	<path class="st4" d="M17.1,8.1c-0.1,0-0.2,0-0.3-0.1l-2-2l-1.9,1.9c-0.2,0.2-0.4,0.2-0.6,0c-0.2-0.2-0.2-0.4,0-0.6l2.2-2.2
		c0.2-0.2,0.4-0.2,0.6,0l2.3,2.3c0.2,0.2,0.2,0.4,0,0.6C17.4,8,17.3,8.1,17.1,8.1"/>
	<path class="st4" d="M14.9,3.1c-0.1,0-0.2,0-0.3-0.1l-2.2-2.2c-0.2-0.2-0.2-0.4,0-0.6c0.2-0.2,0.4-0.2,0.6,0l1.9,1.9l2-2
		C17,0,17.3,0,17.4,0.1c0.2,0.2,0.2,0.4,0,0.6L15.2,3C15.1,3.1,15,3.1,14.9,3.1"/>
	<path class="st3" d="M18.5,6.7c-0.1,0-0.2,0-0.3-0.1L16,4.3c-0.1-0.1-0.1-0.2-0.1-0.3c0-0.1,0-0.2,0.1-0.3l2.2-2.2
		c0.2-0.2,0.4-0.2,0.6,0c0.2,0.2,0.2,0.4,0,0.6L16.8,4l2,2c0.2,0.2,0.2,0.4,0,0.6C18.7,6.7,18.6,6.7,18.5,6.7"/>
	<path class="st3" d="M10.4,20.5c0.1,0,0.2,0,0.3,0.1c0.2,0.2,0.2,0.4,0,0.6l-2,2l1.9,1.9c0.2,0.2,0.2,0.4,0,0.6
		c-0.2,0.2-0.4,0.2-0.6,0l-2.2-2.2c-0.2-0.2-0.2-0.4,0-0.6l2.3-2.3C10.1,20.6,10.2,20.5,10.4,20.5"/>
	<path class="st4" d="M4.5,19.2c0.1,0,0.2,0,0.3,0.1l2,2l1.9-1.9c0.2-0.2,0.4-0.2,0.6,0c0.2,0.2,0.2,0.4,0,0.6L7,22.2
		c-0.2,0.2-0.4,0.2-0.6,0l-2.3-2.3c-0.2-0.2-0.2-0.4,0-0.6C4.3,19.2,4.4,19.2,4.5,19.2"/>
	<path class="st4" d="M6.7,24.2c0.1,0,0.2,0,0.3,0.1l2.2,2.2c0.2,0.2,0.2,0.4,0,0.6c-0.2,0.2-0.4,0.2-0.6,0l-1.9-1.9l-2,2
		c-0.2,0.2-0.4,0.2-0.6,0C4,27,4,26.7,4.2,26.6l2.3-2.3C6.5,24.2,6.6,24.2,6.7,24.2"/>
	<path class="st3" d="M3.1,20.6c0.1,0,0.2,0,0.3,0.1l2.3,2.3c0.1,0.1,0.1,0.2,0.1,0.3c0,0.1,0,0.2-0.1,0.3l-2.2,2.2
		c-0.2,0.2-0.4,0.2-0.6,0c-0.2-0.2-0.2-0.4,0-0.6l1.9-1.9l-2-2c-0.2-0.2-0.2-0.4,0-0.6C2.9,20.6,3,20.6,3.1,20.6"/>
	<path class="st3" d="M18.7,23.2c0.1,0,0.2,0,0.3,0.1c0.2,0.2,0.2,0.4,0,0.6l-2,2l1.9,1.9c0.2,0.2,0.2,0.4,0,0.6
		c-0.2,0.2-0.4,0.2-0.6,0l-2.2-2.2c-0.2-0.2-0.2-0.4,0-0.6l2.3-2.3C18.5,23.3,18.6,23.2,18.7,23.2"/>
	<path class="st4" d="M12.8,21.9c0.1,0,0.2,0,0.3,0.1l2,2l1.9-1.9c0.2-0.2,0.4-0.2,0.6,0c0.2,0.2,0.2,0.4,0,0.6l-2.2,2.2
		c-0.2,0.2-0.4,0.2-0.6,0l-2.3-2.3c-0.2-0.2-0.2-0.4,0-0.6C12.6,21.9,12.7,21.9,12.8,21.9"/>
	<path class="st4" d="M15.1,26.9c0.1,0,0.2,0,0.3,0.1l2.2,2.2c0.2,0.2,0.2,0.4,0,0.6c-0.2,0.2-0.4,0.2-0.6,0l-1.9-1.9l-2,2
		c-0.2,0.2-0.4,0.2-0.6,0c-0.2-0.2-0.2-0.4,0-0.6l2.3-2.3C14.9,26.9,15,26.9,15.1,26.9"/>
	<path class="st3" d="M11.5,23.2c0.1,0,0.2,0,0.3,0.1l2.3,2.3c0.1,0.1,0.1,0.2,0.1,0.3c0,0.1,0,0.2-0.1,0.3l-2.2,2.2
		c-0.2,0.2-0.4,0.2-0.6,0c-0.2-0.2-0.2-0.4,0-0.6l1.9-1.9l-2-2c-0.2-0.2-0.2-0.4,0-0.6C11.3,23.3,11.4,23.2,11.5,23.2"/>
	<path class="st3" d="M26.9,20.5c0.1,0,0.2,0,0.3,0.1c0.2,0.2,0.2,0.4,0,0.6l-2,2l1.9,1.9c0.2,0.2,0.2,0.4,0,0.6
		c-0.2,0.2-0.4,0.2-0.6,0l-2.2-2.2c-0.2-0.2-0.2-0.4,0-0.6l2.3-2.3C26.7,20.6,26.8,20.5,26.9,20.5"/>
	<path class="st4" d="M21,19.2c0.1,0,0.2,0,0.3,0.1l2,2l1.9-1.9c0.2-0.2,0.4-0.2,0.6,0c0.2,0.2,0.2,0.4,0,0.6l-2.2,2.2
		c-0.2,0.2-0.4,0.2-0.6,0l-2.3-2.3c-0.2-0.2-0.2-0.4,0-0.6C20.8,19.2,20.9,19.2,21,19.2"/>
	<path class="st4" d="M23.3,24.2c0.1,0,0.2,0,0.3,0.1l2.2,2.2c0.2,0.2,0.2,0.4,0,0.6c-0.2,0.2-0.4,0.2-0.6,0l-1.9-1.9l-2,2
		c-0.2,0.2-0.4,0.2-0.6,0c-0.2-0.2-0.2-0.4,0-0.6l2.3-2.3C23.1,24.2,23.2,24.2,23.3,24.2"/>
	<path class="st3" d="M19.6,20.6c0.1,0,0.2,0,0.3,0.1l2.3,2.3c0.1,0.1,0.1,0.2,0.1,0.3c0,0.1,0,0.2-0.1,0.3L20,25.8
		c-0.2,0.2-0.4,0.2-0.6,0c-0.2-0.2-0.2-0.4,0-0.6l1.9-1.9l-2-2c-0.2-0.2-0.2-0.4,0-0.6C19.4,20.6,19.5,20.6,19.6,20.6"/>
	<path class="st3" d="M29.6,12.3c0.1,0,0.2,0,0.3,0.1c0.2,0.2,0.2,0.4,0,0.6l-2,2l1.9,1.9c0.2,0.2,0.2,0.4,0,0.6
		c-0.2,0.2-0.4,0.2-0.6,0L27,15.3c-0.2-0.2-0.2-0.4,0-0.6l2.3-2.3C29.3,12.4,29.4,12.3,29.6,12.3"/>
	<path class="st4" d="M23.7,11c0.1,0,0.2,0,0.3,0.1l2,2l1.9-1.9c0.2-0.2,0.4-0.2,0.6,0c0.2,0.2,0.2,0.4,0,0.6L26.2,14
		c-0.2,0.2-0.4,0.2-0.6,0l-2.3-2.3c-0.2-0.2-0.2-0.4,0-0.6C23.5,11,23.6,11,23.7,11"/>
	<path class="st4" d="M25.9,16c0.1,0,0.2,0,0.3,0.1l2.2,2.2c0.2,0.2,0.2,0.4,0,0.6c-0.2,0.2-0.4,0.2-0.6,0L25.9,17l-2,2
		c-0.2,0.2-0.4,0.2-0.6,0c-0.2-0.2-0.2-0.4,0-0.6l2.3-2.3C25.7,16,25.8,16,25.9,16"/>
	<path class="st3" d="M22.3,12.4c0.1,0,0.2,0,0.3,0.1l2.3,2.3c0.1,0.1,0.1,0.2,0.1,0.3c0,0.1,0,0.2-0.1,0.3l-2.2,2.2
		c-0.2,0.2-0.4,0.2-0.6,0c-0.2-0.2-0.2-0.4,0-0.6L24,15l-2-2c-0.2-0.2-0.2-0.4,0-0.6C22.1,12.4,22.2,12.4,22.3,12.4"/>
	<path class="st3" d="M19.6,9.4c-0.1,0-0.2,0-0.3-0.1c-0.2-0.2-0.2-0.4,0-0.6l2-2l-1.9-1.9c-0.2-0.2-0.2-0.4,0-0.6
		C19.5,4,19.8,4,20,4.2l2.2,2.2c0.2,0.2,0.2,0.4,0,0.6l-2.3,2.3C19.8,9.4,19.7,9.4,19.6,9.4"/>
	<path class="st4" d="M25.5,10.8c-0.1,0-0.2,0-0.3-0.1l-2-2l-1.9,1.9c-0.2,0.2-0.4,0.2-0.6,0c-0.2-0.2-0.2-0.4,0-0.6L23,7.8
		c0.2-0.2,0.4-0.2,0.6,0l2.3,2.3c0.2,0.2,0.2,0.4,0,0.6C25.7,10.7,25.6,10.8,25.5,10.8"/>
	<path class="st4" d="M23.3,5.8c-0.1,0-0.2,0-0.3-0.1l-2.2-2.2c-0.2-0.2-0.2-0.4,0-0.6c0.2-0.2,0.4-0.2,0.6,0l1.9,1.9l2-2
		c0.2-0.2,0.4-0.2,0.6,0C26,3,26,3.2,25.8,3.4l-2.3,2.3C23.5,5.7,23.4,5.8,23.3,5.8"/>
	<path class="st3" d="M26.9,9.4c-0.1,0-0.2,0-0.3-0.1L24.3,7c-0.1-0.1-0.1-0.2-0.1-0.3c0-0.1,0-0.2,0.1-0.3l2.2-2.2
		C26.7,4,27,4,27.2,4.2c0.2,0.2,0.2,0.4,0,0.6l-1.9,1.9l2,2c0.2,0.2,0.2,0.4,0,0.6C27.1,9.4,27,9.4,26.9,9.4"/>
</g>
</svg>
