<?xml version="1.0" encoding="utf-8"?>
<!-- Generator: Adobe Illustrator 25.2.3, SVG Export Plug-In . SVG Version: 6.00 Build 0)  -->
<svg version="1.1" id="레이어_1" xmlns="http://www.w3.org/2000/svg" xmlns:xlink="http://www.w3.org/1999/xlink" x="0px"
	 y="0px" width="400px" height="400px" viewBox="0 0 400 400" enable-background="new 0 0 400 400" xml:space="preserve">
<g>
	
		<image overflow="visible" width="2654" height="2632" xlink:href="B5DAF451.png"  transform="matrix(0.24 0 0 0.24 -118.3689 -115.7289)">
	</image>
	<g>
		<path fill="#FFFFFF" d="M162.6,112.8c3.2-2,6-2,9.1-0.2c18.2,13.3,34.1,35.2,56.8,41.1c17.5,4.6,39.1,1.3,56.2,4.8
			c6.2,1.3,8.6,7,5,12.3c-11.8,17.3-32.9,30.4-41.2,50.8c-7.6,18.7-3.5,41.7-7.9,60.4c-1.4,6.1-7.3,8.5-12.6,5.1
			c-17.7-11.3-30.7-32-51.8-39.5c-18.8-6.6-42.1-2.3-60.9-6.2c-6.2-1.3-8.6-7-5-12.3c11.8-17.3,33-30.4,41.2-50.8
			c7.6-18.9,3.5-41.6,7.9-60.4C159.9,115.9,160.8,113.9,162.6,112.8z"/>
	</g>
</g>
</svg>
